<svg xmlns="http://www.w3.org/2000/svg" viewBox="0 0 14 14"><defs><clipPath id="ehbja"><path fill="#fff" d="M.604 11.151L4.67 7.114.444 2.918a1.496 1.496 0 010-2.127 1.524 1.524 0 012.143 0l4.227 4.195L11.396.44a1.534 1.534 0 012.158 0 1.507 1.507 0 010 2.142L8.973 7.129l4.332 4.3c.592.588.592 1.54 0 2.128a1.524 1.524 0 01-2.143 0l-4.333-4.3-4.067 4.037a1.534 1.534 0 01-2.158 0 1.507 1.507 0 010-2.143z"/></clipPath></defs><path fill="none" stroke="#fff" stroke-miterlimit="20" stroke-width="4" d="M.604 11.151L4.67 7.114.444 2.918a1.496 1.496 0 010-2.127 1.524 1.524 0 012.143 0l4.227 4.195L11.396.44a1.534 1.534 0 012.158 0 1.507 1.507 0 010 2.142L8.973 7.129l4.332 4.3c.592.588.592 1.54 0 2.128a1.524 1.524 0 01-2.143 0l-4.333-4.3-4.067 4.037a1.534 1.534 0 01-2.158 0 1.507 1.507 0 010-2.143z" clip-path="url(&quot;#ehbja&quot;)"/></svg>